<mxfile host="Electron" modified="2022-09-26T10:44:33.248Z" agent="5.0 (Macintosh; Intel Mac OS X 10_15_7) AppleWebKit/537.36 (KHTML, like Gecko) draw.io/20.3.0 Chrome/104.0.5112.114 Electron/20.1.3 Safari/537.36" etag="tTRcOsjOF4qRfak2zzjc" compressed="false" version="20.3.0" type="device">
  <diagram id="X8JupkG_frpfl3048SV1" name="Seite-1">
    <mxGraphModel dx="358" dy="655" grid="1" gridSize="10" guides="1" tooltips="1" connect="1" arrows="1" fold="1" page="1" pageScale="1" pageWidth="827" pageHeight="1169" math="0" shadow="0">
      <root>
        <mxCell id="0" />
        <mxCell id="1" parent="0" />
        <mxCell id="COB3fIWdXcqoQqjXrbWP-15" value="&lt;b&gt;1c.&lt;/b&gt; createProposal()" style="edgeStyle=orthogonalEdgeStyle;rounded=1;orthogonalLoop=1;jettySize=auto;html=1;endArrow=classic;endFill=1;strokeColor=default;align=left;jumpStyle=none;dashed=1;dashPattern=1 1;startArrow=none;startFill=0;" parent="1" edge="1">
          <mxGeometry x="0.6842" relative="1" as="geometry">
            <mxPoint x="570" y="170" as="sourcePoint" />
            <mxPoint x="390" y="189.98" as="targetPoint" />
            <Array as="points">
              <mxPoint x="570" y="189.98" />
            </Array>
            <mxPoint as="offset" />
          </mxGeometry>
        </mxCell>
        <mxCell id="QeQ9D6eCI_H8n2r237_F-6" value="Plugin Repository" style="rounded=1;whiteSpace=wrap;html=1;verticalAlign=top;strokeColor=#999999;" parent="1" vertex="1">
          <mxGeometry x="380" y="50" width="270" height="100" as="geometry" />
        </mxCell>
        <mxCell id="QeQ9D6eCI_H8n2r237_F-25" style="edgeStyle=orthogonalEdgeStyle;rounded=0;orthogonalLoop=1;jettySize=auto;html=1;fontFamily=Helvetica;endArrow=classic;endFill=1;strokeColor=#000000;entryX=0.5;entryY=0;entryDx=0;entryDy=0;startArrow=oval;startFill=1;dashed=1;dashPattern=1 1;exitX=0.5;exitY=1;exitDx=0;exitDy=0;" parent="1" source="QeQ9D6eCI_H8n2r237_F-7" target="QeQ9D6eCI_H8n2r237_F-22" edge="1">
          <mxGeometry relative="1" as="geometry">
            <mxPoint x="570" y="180" as="sourcePoint" />
            <Array as="points" />
          </mxGeometry>
        </mxCell>
        <mxCell id="COB3fIWdXcqoQqjXrbWP-33" value="&lt;b style=&quot;font-size: 11px;&quot;&gt;1b.&lt;/b&gt;&lt;span style=&quot;font-size: 11px;&quot;&gt;&amp;nbsp;prepareInstallation()&lt;/span&gt;" style="edgeLabel;html=1;align=center;verticalAlign=middle;resizable=0;points=[];fontSize=9;fontColor=#000000;" parent="QeQ9D6eCI_H8n2r237_F-25" vertex="1" connectable="0">
          <mxGeometry x="0.4052" y="-1" relative="1" as="geometry">
            <mxPoint x="1" y="-26" as="offset" />
          </mxGeometry>
        </mxCell>
        <mxCell id="QeQ9D6eCI_H8n2r237_F-17" value="DAO" style="rounded=1;whiteSpace=wrap;html=1;verticalAlign=top;fillColor=#dae8fc;strokeColor=#6c8ebf;" parent="1" vertex="1">
          <mxGeometry x="220" y="200" width="140" height="80" as="geometry" />
        </mxCell>
        <mxCell id="QeQ9D6eCI_H8n2r237_F-32" style="edgeStyle=orthogonalEdgeStyle;rounded=1;orthogonalLoop=1;jettySize=auto;html=1;exitX=0.5;exitY=1;exitDx=0;exitDy=0;fontFamily=Helvetica;endArrow=none;endFill=0;strokeColor=#000000;startArrow=oval;startFill=1;dashed=1;dashPattern=1 1;" parent="1" source="QeQ9D6eCI_H8n2r237_F-4" edge="1">
          <mxGeometry relative="1" as="geometry">
            <mxPoint x="581.0000000000002" y="180" as="sourcePoint" />
            <mxPoint x="570" y="160" as="targetPoint" />
            <Array as="points">
              <mxPoint x="440" y="160" />
              <mxPoint x="570" y="160" />
            </Array>
          </mxGeometry>
        </mxCell>
        <mxCell id="QeQ9D6eCI_H8n2r237_F-29" style="edgeStyle=orthogonalEdgeStyle;rounded=1;orthogonalLoop=1;jettySize=auto;html=1;entryX=0.5;entryY=1;entryDx=0;entryDy=0;fontFamily=Helvetica;fontColor=#FF3333;endArrow=classic;endFill=1;strokeColor=#97D077;startArrow=oval;startFill=1;exitX=0.5;exitY=1;exitDx=0;exitDy=0;" parent="1" source="QeQ9D6eCI_H8n2r237_F-22" target="QeQ9D6eCI_H8n2r237_F-17" edge="1">
          <mxGeometry relative="1" as="geometry">
            <Array as="points">
              <mxPoint x="570" y="300" />
              <mxPoint x="290" y="300" />
            </Array>
            <mxPoint x="580" y="280" as="sourcePoint" />
          </mxGeometry>
        </mxCell>
        <mxCell id="QeQ9D6eCI_H8n2r237_F-31" value="&amp;nbsp; doSomething() ✨" style="edgeLabel;html=1;align=left;verticalAlign=middle;resizable=0;points=[];fontFamily=Helvetica;fontColor=#97D077;" parent="QeQ9D6eCI_H8n2r237_F-29" vertex="1" connectable="0">
          <mxGeometry x="0.0005" y="1" relative="1" as="geometry">
            <mxPoint x="-10" as="offset" />
          </mxGeometry>
        </mxCell>
        <mxCell id="QeQ9D6eCI_H8n2r237_F-11" style="edgeStyle=orthogonalEdgeStyle;rounded=0;orthogonalLoop=1;jettySize=auto;html=1;exitX=1;exitY=0.5;exitDx=0;exitDy=0;strokeColor=default;endArrow=none;endFill=0;dashed=1;" parent="1" edge="1">
          <mxGeometry relative="1" as="geometry">
            <mxPoint x="520" y="130" as="targetPoint" />
          </mxGeometry>
        </mxCell>
        <mxCell id="u4ToR_9xVMkJngpt0C1o-3" value="" style="rounded=1;whiteSpace=wrap;html=1;fillColor=#d5e8d4;strokeColor=#82b366;" parent="1" vertex="1">
          <mxGeometry x="410" y="90" width="80" height="40" as="geometry" />
        </mxCell>
        <mxCell id="QeQ9D6eCI_H8n2r237_F-4" value="Plugin Logic" style="rounded=1;whiteSpace=wrap;html=1;fillColor=#d5e8d4;strokeColor=#82b366;" parent="1" vertex="1">
          <mxGeometry x="400" y="100" width="80" height="40" as="geometry" />
        </mxCell>
        <mxCell id="QeQ9D6eCI_H8n2r237_F-12" style="edgeStyle=orthogonalEdgeStyle;rounded=0;orthogonalLoop=1;jettySize=auto;html=1;exitX=1;exitY=0.5;exitDx=0;exitDy=0;entryX=0;entryY=0.5;entryDx=0;entryDy=0;strokeColor=default;endArrow=none;endFill=0;dashed=1;startArrow=none;startFill=0;" parent="1" source="QeQ9D6eCI_H8n2r237_F-4" target="QeQ9D6eCI_H8n2r237_F-7" edge="1">
          <mxGeometry relative="1" as="geometry">
            <mxPoint x="560" y="110" as="sourcePoint" />
            <mxPoint x="620" y="110" as="targetPoint" />
          </mxGeometry>
        </mxCell>
        <mxCell id="QeQ9D6eCI_H8n2r237_F-13" style="edgeStyle=orthogonalEdgeStyle;rounded=0;orthogonalLoop=1;jettySize=auto;html=1;exitX=1;exitY=0.5;exitDx=0;exitDy=0;strokeColor=default;endArrow=none;endFill=0;dashed=1;startArrow=none;startFill=0;" parent="1" source="u4ToR_9xVMkJngpt0C1o-3" target="QeQ9D6eCI_H8n2r237_F-8" edge="1">
          <mxGeometry relative="1" as="geometry">
            <mxPoint x="520" y="130" as="sourcePoint" />
            <mxPoint x="580" y="130" as="targetPoint" />
          </mxGeometry>
        </mxCell>
        <mxCell id="QeQ9D6eCI_H8n2r237_F-8" value="" style="rounded=1;whiteSpace=wrap;html=1;fillColor=#f5f5f5;strokeColor=#666666;fontColor=#333333;" parent="1" vertex="1">
          <mxGeometry x="540" y="90" width="80" height="40" as="geometry" />
        </mxCell>
        <mxCell id="QeQ9D6eCI_H8n2r237_F-16" value="&lt;b&gt;1a.&lt;/b&gt;&amp;nbsp;prepareInstallation(repo, version)" style="edgeStyle=orthogonalEdgeStyle;rounded=1;orthogonalLoop=1;jettySize=auto;html=1;endArrow=classic;endFill=1;strokeColor=default;align=left;entryX=0.5;entryY=0;entryDx=0;entryDy=0;dashed=1;dashPattern=1 1;" parent="1" target="QeQ9D6eCI_H8n2r237_F-7" edge="1">
          <mxGeometry x="-0.8621" relative="1" as="geometry">
            <mxPoint x="350" y="30" as="sourcePoint" />
            <mxPoint x="250" y="80" as="targetPoint" />
            <Array as="points">
              <mxPoint x="570" y="30" />
            </Array>
            <mxPoint as="offset" />
          </mxGeometry>
        </mxCell>
        <mxCell id="QeQ9D6eCI_H8n2r237_F-19" value="" style="edgeStyle=orthogonalEdgeStyle;rounded=0;orthogonalLoop=1;jettySize=auto;html=1;exitX=1;exitY=0.5;exitDx=0;exitDy=0;fontFamily=Courier New;endArrow=classic;endFill=1;strokeColor=#B85450;entryX=0;entryY=0.75;entryDx=0;entryDy=0;" parent="1" source="QeQ9D6eCI_H8n2r237_F-18" target="QeQ9D6eCI_H8n2r237_F-22" edge="1">
          <mxGeometry x="0.8375" relative="1" as="geometry">
            <mxPoint x="569" y="250" as="targetPoint" />
            <Array as="points" />
            <mxPoint as="offset" />
            <mxPoint x="399" y="260" as="sourcePoint" />
          </mxGeometry>
        </mxCell>
        <mxCell id="QeQ9D6eCI_H8n2r237_F-21" value="&lt;font color=&quot;#b85450&quot; face=&quot;Helvetica&quot;&gt;&lt;b style=&quot;&quot;&gt;2c.&lt;/b&gt; grant()&lt;/font&gt;" style="edgeLabel;html=1;align=left;verticalAlign=middle;resizable=0;points=[];fontFamily=Courier New;fontColor=#FF3333;" parent="QeQ9D6eCI_H8n2r237_F-19" vertex="1" connectable="0">
          <mxGeometry x="-0.0703" y="1" relative="1" as="geometry">
            <mxPoint x="-14" y="1" as="offset" />
          </mxGeometry>
        </mxCell>
        <mxCell id="QeQ9D6eCI_H8n2r237_F-18" value="Permission&lt;br&gt;Manager" style="rounded=1;whiteSpace=wrap;html=1;fillColor=#f8cecc;strokeColor=#b85450;" parent="1" vertex="1">
          <mxGeometry x="230" y="230" width="120" height="40" as="geometry" />
        </mxCell>
        <mxCell id="QeQ9D6eCI_H8n2r237_F-22" value="Plugin" style="rounded=1;whiteSpace=wrap;html=1;fillColor=#d5e8d4;strokeColor=#82b366;" parent="1" vertex="1">
          <mxGeometry x="530" y="220" width="80" height="40" as="geometry" />
        </mxCell>
        <mxCell id="QeQ9D6eCI_H8n2r237_F-23" value="1.0.1" style="rounded=1;whiteSpace=wrap;html=1;verticalAlign=middle;" parent="1" vertex="1">
          <mxGeometry x="521" y="210" width="40" height="20" as="geometry" />
        </mxCell>
        <mxCell id="QeQ9D6eCI_H8n2r237_F-1" value="&lt;font color=&quot;#999999&quot;&gt;1.0.0&lt;/font&gt;" style="rounded=1;whiteSpace=wrap;html=1;verticalAlign=middle;strokeColor=#999999;" parent="1" vertex="1">
          <mxGeometry x="400" y="80" width="40" height="20" as="geometry" />
        </mxCell>
        <mxCell id="QeQ9D6eCI_H8n2r237_F-5" value="1.0.1" style="rounded=1;whiteSpace=wrap;html=1;verticalAlign=middle;" parent="1" vertex="1">
          <mxGeometry x="390" y="90" width="40" height="20" as="geometry" />
        </mxCell>
        <mxCell id="QeQ9D6eCI_H8n2r237_F-15" value="" style="edgeStyle=orthogonalEdgeStyle;rounded=1;orthogonalLoop=1;jettySize=auto;html=1;endArrow=classic;endFill=1;strokeColor=#6c8ebf;startArrow=oval;startFill=1;fillColor=#dae8fc;align=left;horizontal=1;exitX=0;exitY=0.5;exitDx=0;exitDy=0;exitPerimeter=0;verticalAlign=middle;" parent="1" source="COB3fIWdXcqoQqjXrbWP-19" edge="1">
          <mxGeometry x="0.0217" relative="1" as="geometry">
            <mxPoint x="290" y="200" as="sourcePoint" />
            <mxPoint x="290" y="50" as="targetPoint" />
            <Array as="points">
              <mxPoint x="290" y="205" />
              <mxPoint x="290" y="50" />
            </Array>
            <mxPoint as="offset" />
          </mxGeometry>
        </mxCell>
        <mxCell id="COB3fIWdXcqoQqjXrbWP-30" value="&lt;font color=&quot;#6c8ebf&quot;&gt;&lt;b style=&quot;&quot;&gt;2a.&lt;/b&gt;&lt;span style=&quot;&quot;&gt;&amp;nbsp;execute()&lt;/span&gt;&lt;/font&gt;" style="edgeLabel;html=1;align=left;verticalAlign=middle;resizable=0;points=[];fontSize=11;fontColor=#000000;horizontal=1;" parent="QeQ9D6eCI_H8n2r237_F-15" vertex="1" connectable="0">
          <mxGeometry x="0.0145" relative="1" as="geometry">
            <mxPoint x="-20" y="-30" as="offset" />
          </mxGeometry>
        </mxCell>
        <mxCell id="COB3fIWdXcqoQqjXrbWP-19" value="&lt;div style=&quot;font-size: 9px;&quot;&gt;&lt;span style=&quot;background-color: initial;&quot;&gt;&lt;font style=&quot;font-size: 9px;&quot;&gt;&lt;b style=&quot;&quot;&gt;Proposal&lt;/b&gt;:&lt;/font&gt;&lt;/span&gt;&lt;/div&gt;&lt;div style=&quot;font-size: 9px;&quot;&gt;&lt;span style=&quot;background-color: initial;&quot;&gt;&lt;font style=&quot;font-size: 9px;&quot;&gt;install plugin&lt;/font&gt;&lt;/span&gt;&lt;/div&gt;" style="shape=note;whiteSpace=wrap;html=1;backgroundOutline=1;darkOpacity=0.05;rounded=1;shadow=0;size=9;align=left;spacing=2;fillColor=#dae8fc;strokeColor=#6c8ebf;" parent="1" vertex="1">
          <mxGeometry x="319" y="190" width="70" height="30" as="geometry" />
        </mxCell>
        <mxCell id="QeQ9D6eCI_H8n2r237_F-28" value="&lt;font face=&quot;Helvetica&quot; style=&quot;font-size: 11px;&quot;&gt;&lt;b style=&quot;font-size: 11px;&quot;&gt;2b.&lt;/b&gt;&amp;nbsp;processInstallation()&lt;/font&gt;" style="edgeStyle=orthogonalEdgeStyle;rounded=0;orthogonalLoop=1;jettySize=auto;html=1;fontFamily=Courier New;endArrow=classic;endFill=1;strokeColor=#000000;align=left;startArrow=oval;startFill=1;entryX=0.25;entryY=0;entryDx=0;entryDy=0;horizontal=1;exitX=0.25;exitY=1;exitDx=0;exitDy=0;fontSize=11;" parent="1" source="QeQ9D6eCI_H8n2r237_F-14" target="QeQ9D6eCI_H8n2r237_F-18" edge="1">
          <mxGeometry x="-0.1112" y="-20" relative="1" as="geometry">
            <mxPoint x="320" y="50" as="sourcePoint" />
            <mxPoint x="630" y="50" as="targetPoint" />
            <mxPoint as="offset" />
            <Array as="points">
              <mxPoint x="260" y="200" />
              <mxPoint x="260" y="200" />
            </Array>
          </mxGeometry>
        </mxCell>
        <mxCell id="QeQ9D6eCI_H8n2r237_F-14" value="Plugin Setup Processor" style="rounded=1;whiteSpace=wrap;html=1;fillColor=#f5f5f5;strokeColor=#666666;fontColor=#333333;" parent="1" vertex="1">
          <mxGeometry x="230" y="10" width="120" height="40" as="geometry" />
        </mxCell>
        <mxCell id="QeQ9D6eCI_H8n2r237_F-7" value="Plugin Setup" style="rounded=1;whiteSpace=wrap;html=1;fillColor=#f5f5f5;strokeColor=#666666;fontColor=#333333;" parent="1" vertex="1">
          <mxGeometry x="530" y="100" width="80" height="40" as="geometry" />
        </mxCell>
        <mxCell id="COB3fIWdXcqoQqjXrbWP-37" value="&lt;font style=&quot;font-size: 20px;&quot;&gt;🗳&lt;/font&gt;" style="text;html=1;align=center;verticalAlign=middle;resizable=0;points=[];autosize=1;strokeColor=none;fillColor=none;fontSize=10;fontColor=#000000;" parent="1" vertex="1">
          <mxGeometry x="286" y="165" width="40" height="40" as="geometry" />
        </mxCell>
        <mxCell id="COB3fIWdXcqoQqjXrbWP-38" style="edgeStyle=orthogonalEdgeStyle;rounded=0;orthogonalLoop=1;jettySize=auto;html=1;endArrow=none;endFill=0;dashed=1;dashPattern=1 1;exitX=1;exitY=0.5;exitDx=0;exitDy=0;entryX=0;entryY=0.5;entryDx=0;entryDy=0;" parent="1" source="COB3fIWdXcqoQqjXrbWP-40" target="QeQ9D6eCI_H8n2r237_F-14" edge="1">
          <mxGeometry relative="1" as="geometry">
            <mxPoint x="220" y="30" as="sourcePoint" />
            <Array as="points" />
            <mxPoint x="220" y="10" as="targetPoint" />
          </mxGeometry>
        </mxCell>
        <mxCell id="COB3fIWdXcqoQqjXrbWP-39" value="" style="group" parent="1" vertex="1" connectable="0">
          <mxGeometry x="165" y="15" width="60" height="60" as="geometry" />
        </mxCell>
        <mxCell id="COB3fIWdXcqoQqjXrbWP-40" value="&lt;font style=&quot;font-size: 20px;&quot;&gt;🧑‍🔧&lt;/font&gt;" style="ellipse;whiteSpace=wrap;html=1;aspect=fixed;labelBackgroundColor=none;strokeColor=#999999;fontSize=20;fontColor=#999999;verticalAlign=bottom;fillColor=none;" parent="COB3fIWdXcqoQqjXrbWP-39" vertex="1">
          <mxGeometry x="15" width="30" height="30" as="geometry" />
        </mxCell>
        <mxCell id="COB3fIWdXcqoQqjXrbWP-41" value="&lt;font color=&quot;#000000&quot;&gt;Proposal&lt;br&gt;Creator&lt;br&gt;&lt;/font&gt;" style="text;html=1;strokeColor=none;fillColor=none;align=center;verticalAlign=middle;whiteSpace=wrap;rounded=0;labelBackgroundColor=#FFFFFF;fontSize=11;fontColor=#999999;" parent="COB3fIWdXcqoQqjXrbWP-39" vertex="1">
          <mxGeometry y="30" width="60" height="30" as="geometry" />
        </mxCell>
      </root>
    </mxGraphModel>
  </diagram>
</mxfile>
